<svg class="lds-gear" width="200px"  height="200px"  xmlns="http://www.w3.org/2000/svg" xmlns:xlink="http://www.w3.org/1999/xlink" viewBox="0 0 100 100" preserveAspectRatio="xMidYMid" style="background: none;"><g transform="translate(50 50)">
<g transform="rotate(168)">
<animateTransform attributeName="transform" type="rotate" values="0;360" keyTimes="0;1" dur="1s" repeatCount="indefinite"></animateTransform><path d="M29.660579899927782 -4.5 L37.66057989992778 -4.5 L37.66057989992778 4.5 L29.660579899927782 4.5 A30 30 0 0 1 27.93681568431556 10.933175632933915 L27.93681568431556 10.933175632933915 L34.86501891459107 14.933175632933915 L30.36501891459107 22.727404266993865 L23.43681568431556 18.727404266993865 A30 30 0 0 1 18.72740426699387 23.43681568431556 L18.72740426699387 23.43681568431556 L22.72740426699387 30.36501891459107 L14.933175632933924 34.86501891459107 L10.933175632933922 27.936815684315558 A30 30 0 0 1 4.499999999999999 29.660579899927782 L4.499999999999999 29.660579899927782 L4.5 37.66057989992778 L-4.499999999999995 37.66057989992778 L-4.499999999999996 29.660579899927786 A30 30 0 0 1 -10.933175632933914 27.936815684315565 L-10.933175632933914 27.936815684315565 L-14.933175632933912 34.865018914591076 L-22.727404266993858 30.36501891459108 L-18.727404266993858 23.43681568431557 A30 30 0 0 1 -23.436815684315558 18.727404266993872 L-23.436815684315558 18.727404266993872 L-30.365018914591065 22.727404266993876 L-34.86501891459106 14.933175632933935 L-27.936815684315558 10.933175632933931 A30 30 0 0 1 -29.660579899927782 4.500000000000002 L-29.660579899927782 4.500000000000002 L-37.66057989992778 4.500000000000003 L-37.66057989992778 -4.499999999999993 L-29.660579899927786 -4.499999999999994 A30 30 0 0 1 -27.936815684315565 -10.933175632933912 L-27.936815684315565 -10.933175632933912 L-34.865018914591076 -14.93317563293391 L-30.36501891459108 -22.727404266993855 L-23.43681568431557 -18.727404266993858 A30 30 0 0 1 -18.727404266993883 -23.436815684315548 L-18.727404266993883 -23.436815684315548 L-22.727404266993886 -30.365018914591055 L-14.93317563293392 -34.86501891459107 L-10.933175632933919 -27.93681568431556 A30 30 0 0 1 -4.500000000000017 -29.660579899927782 L-4.500000000000017 -29.660579899927782 L-4.500000000000019 -37.66057989992778 L4.500000000000003 -37.66057989992778 L4.500000000000004 -29.660579899927782 A30 30 0 0 1 10.933175632933885 -27.936815684315576 L10.933175632933885 -27.936815684315576 L14.93317563293388 -34.86501891459109 L22.72740426699385 -30.365018914591083 L18.727404266993858 -23.436815684315572 A30 30 0 0 1 23.436815684315544 -18.727404266993886 L23.436815684315544 -18.727404266993886 L30.36501891459105 -22.72740426699389 L34.86501891459107 -14.933175632933924 L27.93681568431556 -10.93317563293392 A30 30 0 0 1 29.660579899927782 -4.500000000000018 M0 -15A15 15 0 1 0 0 15 A15 15 0 1 0 0 -15" fill="#08868c"></path></g></g></svg>